<svg xmlns="http://www.w3.org/2000/svg" xmlns:xlink="http://www.w3.org/1999/xlink">
  <defs>
    <!-- Thumbs Up Icon -->
    <symbol id="thumbs-up" viewBox="0 0 256 256">
            <rect width="256" height="256" fill="none"/>
            <path d="M32,104H80a0,0,0,0,1,0,0V208a0,0,0,0,1,0,0H32a8,8,0,0,1-8-8V112A8,8,0,0,1,32,104Z" fill="none" stroke="currentColor" stroke-linecap="round" stroke-linejoin="round" stroke-width="24"/>
            <path d="M80,104l40-80a32,32,0,0,1,32,32V80h61.9a15.9,15.9,0,0,1,15.8,18l-12,96a16,16,0,0,1-15.8,14H80" fill="none" stroke="currentColor" stroke-linecap="round" stroke-linejoin="round" stroke-width="24"/>
        </symbol>

    <!-- Comment Icon -->
    <symbol viewBox="0 0 24 24" id="comment">
      <path d="M12 2C6.48 2 2 6.48 2 12c0 5.52 4.48 10 10 10 4.76 0 8.71-3.31 9.74-7.68l1.26-.13A2.994 2.994 0 0 0 20 11c0-5.52-4.48-10-10-10zm0 16c-4.41 0-8-3.59-8-8s3.59-8 8-8 8 3.59 8 8-3.59 8-8 8z"/>
    </symbol>

    <!-- Share Icon -->
  </defs>
</svg>
