<svg xmlns="http://www.w3.org/2000/svg" xmlns:xlink="http://www.w3.org/1999/xlink">
  <defs>
    <!-- Thumbs Up Icon -->
    <symbol id="thumbs-up" viewBox="0 0 256 256">
            <rect width="256" height="256" fill="none"/>
            <path d="M32,104H80a0,0,0,0,1,0,0V208a0,0,0,0,1,0,0H32a8,8,0,0,1-8-8V112A8,8,0,0,1,32,104Z" fill="none" stroke="currentColor" stroke-linecap="round" stroke-linejoin="round" stroke-width="24"/>
            <path d="M80,104l40-80a32,32,0,0,1,32,32V80h61.9a15.9,15.9,0,0,1,15.8,18l-12,96a16,16,0,0,1-15.8,14H80" fill="none" stroke="currentColor" stroke-linecap="round" stroke-linejoin="round" stroke-width="24"/>
        </symbol>

    <!-- Comment Icon -->
    <symbol id="comment-icon" viewBox="0 0 200 255">
      <path d="M90.3,105.6c0,4.6-3.7,8.3-8.3,8.3c-4.6,0-8.3-3.7-8.3-8.3c0-4.6,3.7-8.3,8.3-8.3C86.6,97.3,90.3,101,90.3,105.6z M113.4,97.3c-4.6,0-8.3,3.7-8.3,8.3c0,4.6,3.7,8.3,8.3,8.3s8.3-3.7,8.3-8.3C121.7,101,118,97.3,113.4,97.3z M144.8,97.3 c-4.6,0-8.3,3.7-8.3,8.3c0,4.6,3.7,8.3,8.3,8.3c4.6,0,8.3-3.7,8.3-8.3C153.1,101,149.4,97.3,144.8,97.3z M172.8,177.3L144.2,155h-96 c-8.5,0-15.3-6.9-15.3-15.3V68.2c0-8.5,6.9-15.3,15.3-15.3h130.5c8.5,0,15.3,6.9,15.3,15.3v71.4c0,8.5-6.9,15.3-15.3,15.3h-5.8 L172.8,177.3z M48.2,60.9c-4,0-7.3,3.3-7.3,7.3v71.4c0,4,3.3,7.3,7.3,7.3h100.4l16.1,12.2l0-12.2l13.9,0c4,0,7.3-3.3,7.3-7.3V68.2 c0-4-3.3-7.3-7.3-7.3H48.2z"/>
    </symbol>


    <!-- Close Icon -->
    <symbol id="close-icon" viewBox="0 0 24 24">
      <path d="M13.42 12L20 18.58 18.58 20 12 13.42 5.42 20 4 18.58 10.58 12 4 5.42 5.42 4 12 10.58 18.58 4 20 5.42z"></path>
    </symbol>

</svg>
